<svg xmlns="http://www.w3.org/2000/svg" viewBox="0 0 120 40" fill="none">
  <path d="M11.5 30C7.5 30 4.5 28.5 3 26C2 24.3 1.5 22 1.5 19.5C1.5 14 5 9.5 10 8L14 15C11.5 16 10 18 10 20.5C10 22.5 11 23.5 13 23.5C15.5 23.5 17.5 22 18.5 20L22 27C20 29.5 16 30 11.5 30Z" fill="currentColor"/>
  <path d="M30 10L25 30H29L31 22H33L37 30H41L36 10H30ZM30.5 19L32.5 12L34.5 19H30.5Z" fill="currentColor"/>
  <path d="M45 10L43 16H41L39 10H34L40 30H45L47 24H49L51 30H56L50 10H45ZM44 19L46 13L48 19H44Z" fill="currentColor"/>
  <path d="M60 10C56 10 53 13 53 17C53 21 56 24 60 24C63 24 65 22 66 20L63 18C62.5 19 61.5 20 60 20C58 20 57 18.5 57 17C57 15.5 58 14 60 14C61.5 14 62.5 15 63 16L66 14C65 12 63 10 60 10ZM58 24L56 30H60L62 24H58Z" fill="currentColor"/>
</svg>
